<svg xmlns="http://www.w3.org/2000/svg" version="1.1" x="0" y="0" viewBox="0 0 512 512" xml:space="preserve"><path d="M503.2 444.1L390.9 331.8l7.1-19c1.3-3.5 0.5-7.5-2.2-10.2l-16.8-16.8c-3.8-3.8-9.9-3.8-13.6 0l-21.1 21.1 -44-44 97.6-97.6c9.4-9.4 21.2-16.6 34.3-20.8 11.1-3.6 21.4-9.9 29.7-18.2 14.4-14.4 22.1-33.5 21.8-53.8 -0.3-20.3-8.7-39.2-23.5-53.1 -2.4-2.3-5.8-3.1-9.1-2.3 -3.2 0.8-5.8 3.3-6.7 6.5l-12.2 39.2c-1.5 4.8-4.8 8.8-9.3 11.2 -4.5 2.4-9.6 2.8-14.5 1.3 -8-2.5-13.4-9.8-13.4-18.1 0-1.9 0.3-3.8 0.9-5.7l12.1-38.7c1-3.2 0.3-6.7-1.9-9.2 -2.2-2.5-5.5-3.7-8.8-3.2 -13.8 2.2-26.6 8.3-37 17.4 -18.3 16.1-27.6 40.1-24.9 64.3 2.8 24.8-6.1 49.4-24.2 67.6L249.1 211.7 115.1 77.7l-2.4-26.3c-0.3-3-1.9-5.7-4.5-7.3L40.2 1.5c-3.8-2.4-8.8-1.8-11.9 1.4L2.8 28.2c-3.2 3.2-3.7 8.1-1.3 11.9l42.7 68.1c1.6 2.5 4.3 4.2 7.3 4.5l26.3 2.4 134 134 -97.6 97.6c-9.4 9.4-21.2 16.6-34.3 20.8 -11.3 3.6-21.3 9.8-29.7 18.2 -14.4 14.4-22.1 33.5-21.8 53.8 0.3 20.3 8.7 39.2 23.5 53.1 2.4 2.3 5.8 3.1 9.1 2.3 3.2-0.8 5.8-3.3 6.8-6.4l12.2-39.2c1.5-4.8 4.8-8.8 9.3-11.2 4.4-2.3 9.4-2.8 14.1-1.4 0.1 0 0.2 0.1 0.4 0.1 10 3.1 15.6 13.8 12.5 23.8l-12.1 38.7c-1 3.2-0.3 6.7 1.9 9.2 1.8 2.1 4.5 3.3 7.3 3.3 0.5 0 1 0 1.5-0.1 13.8-2.2 26.5-8.3 37-17.4 18.3-16.1 27.6-40.1 24.9-64.3 -2.8-24.8 6.1-49.4 24.2-67.6l62-62 44 44 -21.1 21.1c-3.8 3.8-3.8 9.9 0 13.6l16.8 16.8c2.7 2.7 6.7 3.5 10.2 2.2l19-7.1 112.3 112.3c5.9 5.9 13.6 8.8 21.3 8.8 7.7 0 15.4-2.9 21.3-8.8l16.5-16.5C514.9 474.9 514.9 455.9 503.2 444.1zM324.8 163.3c22.3-22.3 33.2-52.7 29.8-83.4 -2-17.9 4.9-35.7 18.5-47.6 3.4-3 7.1-5.5 11.1-7.5l-6.6 21c-1.2 3.7-1.7 7.6-1.7 11.4 0 16.8 10.8 31.5 26.9 36.5 20.2 6.3 41.7-5 47.9-25.1l6.8-21.8c4.5 7.9 6.9 16.8 7 26.2 0.2 15.1-5.5 29.2-16.1 39.8 -6.2 6.2-13.6 10.8-22 13.5 -16 5.1-30.5 14-42 25.5l-97.6 97.6 -24-24L324.8 163.3zM187.2 348.7c-22.3 22.4-33.2 52.7-29.8 83.4 2 17.9-4.9 35.7-18.5 47.6 -3.4 3-7.1 5.5-11.1 7.5l6.6-21c6.2-20-4.8-41.3-24.6-47.8 -0.2-0.1-0.3-0.1-0.5-0.2 -9.8-3-20.1-2.1-29.2 2.6 -9.1 4.8-15.7 12.7-18.8 22.5l-6.8 21.8c-4.5-7.9-6.9-16.8-7-26.2 -0.2-15.1 5.5-29.2 16.1-39.8 6.3-6.3 13.7-10.8 22-13.5 16-5.1 30.5-14 42-25.5l97.6-97.6 24 24L187.2 348.7zM87.9 98.1c-1.9-1.9-4.3-2.8-6.8-2.8 -1.1 0-2.2 0.2-3.2 0.5l-19.9-1.8 -36.1-57.5L36.4 21.9l57.5 36.1 1.8 20c-0.4 1-0.5 2.1-0.5 3.2 0 2.6 1 5 2.8 6.8l232.6 232.6 -10.1 10.1L87.9 98.1zM328.9 371.4l-17 6.4 -5.6-5.6 65.9-65.9 5.6 5.6 -6.4 17L328.9 371.4zM489.6 473l-16.5 16.5c-4.2 4.2-11.1 4.2-15.3 0L347.9 379.7l31.8-31.8 109.9 109.9C493.8 462 493.8 468.8 489.6 473z"/></svg>