<svg xmlns="http://www.w3.org/2000/svg" version="1.1" x="0" y="0" viewBox="0 0 492.9 492.9" xml:space="preserve"><path d="M405.8 0H188.7c-19 0-34.5 15.5-34.5 34.5v16.3h-16.3c-19 0-34.5 15.5-34.5 34.5v16.3H87.1c-19 0-34.5 15.5-34.5 34.5l0 322.2c0 19 15.5 34.5 34.5 34.5h152.5c10.7 0 20.9-4.2 28.4-11.7l39.5-39.1h47.4c19.1 0 34.5-15.5 34.5-34.5v-16.3h16.3c19 0 34.5-15.5 34.5-34.5l0-322.2C440.3 15.5 424.9 0 405.8 0zM311.5 392h-40c-4.8 0-9.3 1-13.4 2.7 -12.4 5.2-21.1 17.5-21.1 31.8v0 0l0 39.1H87.1c-4 0-7.2-3.2-7.3-7.3V136.2c0-4 3.3-7.3 7.3-7.3l217.1 0c4 0 7.3 3.3 7.3 7.2V392zM362.3 407.6c0 4-3.3 7.2-7.3 7.2h-19.5c1.1-1.2 3.2-3.8 3.2-9.2 0-67.4 0-269.4 0-269.4 0-19-15.5-34.5-34.5-34.5H130.6V85.3c0-4 3.2-7.2 7.2-7.2l217.1 0c4 0 7.3 3.3 7.3 7.3V407.6zM413.1 356.8c0 4-3.3 7.3-7.3 7.3h-16.3l0-278.7c0-19-15.5-34.5-34.5-34.5H181.5V34.5c0-4 3.3-7.2 7.2-7.2l217.1 0c4 0 7.3 3.3 7.3 7.3V356.8z"/></svg>