<svg xmlns="http://www.w3.org/2000/svg" version="1.1" x="0" y="0" viewBox="0 0 410.2 410.2" xml:space="preserve"><path d="M403.6 74.2c-9.1 4-18.6 7.2-28.3 9.5 10.7-10.2 18.7-22.9 23.3-37.1l0 0c1.3-4.1-3.1-7.6-6.8-5.4l0 0c-13.5 8-28 14-43.2 17.9 -0.9 0.2-1.8 0.3-2.7 0.3 -2.8 0-5.5-1-7.6-2.9 -16.2-14.2-36.9-22.1-58.5-22.1 -9.3 0-18.8 1.5-28 4.3 -28.7 8.9-50.8 32.5-57.7 61.7 -2.6 10.9-3.3 21.9-2.1 32.6 0.1 1.2-0.4 2.1-0.8 2.5 -0.6 0.7-1.5 1.1-2.4 1.1 -0.1 0-0.2 0-0.3 0 -62.8-5.8-119.4-36.1-159.4-85.1l0 0c-2-2.5-6-2.2-7.6 0.6l0 0C13.7 65.6 9.5 80.9 9.5 96.6c0 24 9.6 46.6 26.4 63 -7-1.7-13.8-4.3-20.2-7.8l0 0c-3.1-1.7-6.8 0.5-6.9 4l0 0c-0.4 35.6 20.4 67.3 51.6 81.6 -0.6 0-1.3 0-1.9 0 -5 0-10-0.5-14.9-1.4l0 0c-3.4-0.7-6.3 2.6-5.3 6l0 0c10.1 31.7 37.4 55 70 60.3 -27.1 18.2-58.6 27.8-91.4 27.8l-10.2 0c-3.2 0-5.8 2.1-6.6 5.1 -0.8 3 0.7 6.2 3.4 7.7 37 21.5 79.1 32.9 122 32.9 37.5 0 72.5-7.4 104.2-22.1 29-13.4 54.7-32.7 76.3-57.1 20.1-22.8 35.8-49.1 46.7-78.2 10.4-27.7 15.9-57.3 15.9-85.6v-1.3c0-4.5 2.1-8.8 5.6-11.7 13.6-11 25.4-24 35.2-38.6l0 0C411.9 77.1 407.9 72.3 403.6 74.2L403.6 74.2z" fill="#76A9EA"/></svg>