<svg xmlns="http://www.w3.org/2000/svg" version="1.1" viewBox="0 0 408.4 408.4" enable-background="new 0 0 408.352 408.352"><path d="m408.3 163.1c0-71.9-54.6-131.6-125.4-138.5-2.6-8.8-10.7-15.3-20.3-15.3h-116.8c-9.6 0-17.8 6.5-20.3 15.3-70.8 6.9-125.5 66.6-125.5 138.5v111.1c0 23.6 19.2 42.8 42.8 42.8h33.3c9.9 0 18-8.1 18-18v-118.1c0-9.9-8.1-18-18-18h-33.3c-10.6 0-20.3 3.9-27.8 10.3v-10.2c0-64.1 48.6-117.3 111.7-123.6 3.4 7.2 10.7 12.1 19.1 12.1h116.8c8.4 0 15.7-5 19.1-12.1 63.1 6.3 111.6 59.5 111.6 123.6v10.2c-7.5-6.4-17.2-10.3-27.8-10.3h-33.3c-9.9 0-18 8.1-18 18v118.1c0 9.9 8.1 18 18 18h33.3c10.6 0 20.3-3.9 27.8-10.3v5.5c0 28.3-23.1 51.4-51.4 51.4h-90.9c-3.3-11.8-14.1-20.5-27-20.5h-27.4c-15.4 0-28 12.6-28 28s12.6 28 28 28h27.4c12.9 0 23.7-8.7 27-20.5h90.9c36.6 0 66.4-29.8 66.4-66.4l0-149.1zm-329.2 17.9v118.1c0 1.6-1.3 3-3 3h-3v-124.1h3c1.6 0 3 1.3 3 3zm-36.3-3h15.3v124.1h-15.3c-15.3 0-27.8-12.5-27.8-27.8v-68.5c0-15.3 12.5-27.8 27.8-27.8zm219.8-141.3h-116.8c-3.4 0-6.2-2.8-6.2-6.2s2.8-6.2 6.2-6.2h116.8c3.4 0 6.2 2.8 6.2 6.2s-2.8 6.2-6.2 6.2zm66.7 262.4v-118.1c0-1.6 1.3-3 3-3h3v124.1h-3c-1.6 0-3-1.3-3-3zm-105.2 85.1h-27.4c-7.2 0-13-5.8-13-13s5.8-13 13-13h27.4c7.2 0 13 5.8 13 13s-5.8 13-13 13zm141.5-82.1h-15.3v-124.1h15.3c15.3 0 27.8 12.5 27.8 27.8v68.5c0 15.3-12.5 27.8-27.8 27.8z"/></svg>